<mxfile host="app.diagrams.net" agent="Mozilla/5.0 (Windows NT 10.0; Win64; x64) AppleWebKit/537.36 (KHTML, like Gecko) Chrome/130.0.0.0 Safari/537.36 Edg/130.0.0.0" version="24.8.3">
  <diagram name="Page-1" id="lhWUn2zrQYFFeAxaQE57">
    <mxGraphModel dx="1674" dy="873" grid="1" gridSize="10" guides="1" tooltips="1" connect="1" arrows="1" fold="1" page="1" pageScale="1" pageWidth="850" pageHeight="1100" math="0" shadow="0">
      <root>
        <mxCell id="0" />
        <mxCell id="1" parent="0" />
        <mxCell id="U7r8t6jxX_xidp9yO5vY-11" style="edgeStyle=orthogonalEdgeStyle;rounded=0;orthogonalLoop=1;jettySize=auto;html=1;exitX=0.5;exitY=1;exitDx=0;exitDy=0;" edge="1" parent="1" source="U7r8t6jxX_xidp9yO5vY-1" target="U7r8t6jxX_xidp9yO5vY-4">
          <mxGeometry relative="1" as="geometry" />
        </mxCell>
        <mxCell id="U7r8t6jxX_xidp9yO5vY-1" value="START" style="ellipse;whiteSpace=wrap;html=1;" vertex="1" parent="1">
          <mxGeometry x="365" y="80" width="120" height="40" as="geometry" />
        </mxCell>
        <mxCell id="U7r8t6jxX_xidp9yO5vY-13" style="edgeStyle=orthogonalEdgeStyle;rounded=0;orthogonalLoop=1;jettySize=auto;html=1;exitX=0;exitY=0.5;exitDx=0;exitDy=0;" edge="1" parent="1" source="U7r8t6jxX_xidp9yO5vY-3" target="U7r8t6jxX_xidp9yO5vY-6">
          <mxGeometry relative="1" as="geometry" />
        </mxCell>
        <mxCell id="U7r8t6jxX_xidp9yO5vY-15" style="edgeStyle=orthogonalEdgeStyle;rounded=0;orthogonalLoop=1;jettySize=auto;html=1;exitX=1;exitY=0.5;exitDx=0;exitDy=0;entryX=0.5;entryY=0;entryDx=0;entryDy=0;" edge="1" parent="1" source="U7r8t6jxX_xidp9yO5vY-3" target="U7r8t6jxX_xidp9yO5vY-5">
          <mxGeometry relative="1" as="geometry" />
        </mxCell>
        <mxCell id="U7r8t6jxX_xidp9yO5vY-3" value="&lt;div&gt;if n1 &amp;gt; n2&lt;/div&gt;" style="rhombus;whiteSpace=wrap;html=1;" vertex="1" parent="1">
          <mxGeometry x="385" y="240" width="80" height="80" as="geometry" />
        </mxCell>
        <mxCell id="U7r8t6jxX_xidp9yO5vY-12" style="edgeStyle=orthogonalEdgeStyle;rounded=0;orthogonalLoop=1;jettySize=auto;html=1;exitX=0.5;exitY=1;exitDx=0;exitDy=0;entryX=0.5;entryY=0;entryDx=0;entryDy=0;" edge="1" parent="1" source="U7r8t6jxX_xidp9yO5vY-4" target="U7r8t6jxX_xidp9yO5vY-3">
          <mxGeometry relative="1" as="geometry" />
        </mxCell>
        <mxCell id="U7r8t6jxX_xidp9yO5vY-4" value="&lt;div&gt;&lt;br&gt;&lt;/div&gt;&lt;div&gt;n1 = int(input(&quot;Enter the first number: &quot;))&lt;/div&gt;&lt;div&gt;n2 = int(input(&quot;Enter the second number: &quot;))&lt;/div&gt;&lt;div&gt;&lt;br&gt;&lt;/div&gt;" style="shape=parallelogram;perimeter=parallelogramPerimeter;whiteSpace=wrap;html=1;fixedSize=1;" vertex="1" parent="1">
          <mxGeometry x="285" y="160" width="280" height="40" as="geometry" />
        </mxCell>
        <mxCell id="U7r8t6jxX_xidp9yO5vY-18" style="edgeStyle=orthogonalEdgeStyle;rounded=0;orthogonalLoop=1;jettySize=auto;html=1;exitX=0;exitY=0.5;exitDx=0;exitDy=0;" edge="1" parent="1" source="U7r8t6jxX_xidp9yO5vY-5" target="U7r8t6jxX_xidp9yO5vY-8">
          <mxGeometry relative="1" as="geometry" />
        </mxCell>
        <mxCell id="U7r8t6jxX_xidp9yO5vY-19" style="edgeStyle=orthogonalEdgeStyle;rounded=0;orthogonalLoop=1;jettySize=auto;html=1;exitX=1;exitY=0.5;exitDx=0;exitDy=0;entryX=1;entryY=0.5;entryDx=0;entryDy=0;" edge="1" parent="1" source="U7r8t6jxX_xidp9yO5vY-5" target="U7r8t6jxX_xidp9yO5vY-9">
          <mxGeometry relative="1" as="geometry">
            <Array as="points">
              <mxPoint x="680" y="380" />
              <mxPoint x="680" y="720" />
              <mxPoint x="485" y="720" />
            </Array>
          </mxGeometry>
        </mxCell>
        <mxCell id="U7r8t6jxX_xidp9yO5vY-5" value="&lt;div&gt;else&lt;/div&gt;" style="rhombus;whiteSpace=wrap;html=1;" vertex="1" parent="1">
          <mxGeometry x="520" y="340" width="80" height="80" as="geometry" />
        </mxCell>
        <mxCell id="U7r8t6jxX_xidp9yO5vY-22" style="edgeStyle=orthogonalEdgeStyle;rounded=0;orthogonalLoop=1;jettySize=auto;html=1;exitX=0.5;exitY=1;exitDx=0;exitDy=0;entryX=0.5;entryY=0;entryDx=0;entryDy=0;" edge="1" parent="1" source="U7r8t6jxX_xidp9yO5vY-6" target="U7r8t6jxX_xidp9yO5vY-21">
          <mxGeometry relative="1" as="geometry">
            <Array as="points">
              <mxPoint x="280" y="560" />
              <mxPoint x="320" y="560" />
            </Array>
          </mxGeometry>
        </mxCell>
        <mxCell id="U7r8t6jxX_xidp9yO5vY-6" value="&amp;nbsp;max_n = n1" style="shape=parallelogram;perimeter=parallelogramPerimeter;whiteSpace=wrap;html=1;fixedSize=1;" vertex="1" parent="1">
          <mxGeometry x="230" y="360" width="100" height="40" as="geometry" />
        </mxCell>
        <mxCell id="U7r8t6jxX_xidp9yO5vY-20" style="edgeStyle=orthogonalEdgeStyle;rounded=0;orthogonalLoop=1;jettySize=auto;html=1;exitX=0.5;exitY=1;exitDx=0;exitDy=0;" edge="1" parent="1" source="U7r8t6jxX_xidp9yO5vY-8" target="U7r8t6jxX_xidp9yO5vY-21">
          <mxGeometry relative="1" as="geometry">
            <mxPoint x="400" y="580" as="targetPoint" />
          </mxGeometry>
        </mxCell>
        <mxCell id="U7r8t6jxX_xidp9yO5vY-8" value="&amp;nbsp;max_n = n2" style="shape=parallelogram;perimeter=parallelogramPerimeter;whiteSpace=wrap;html=1;fixedSize=1;" vertex="1" parent="1">
          <mxGeometry x="380" y="480" width="120" height="40" as="geometry" />
        </mxCell>
        <mxCell id="U7r8t6jxX_xidp9yO5vY-9" value="STOP" style="ellipse;whiteSpace=wrap;html=1;" vertex="1" parent="1">
          <mxGeometry x="365" y="700" width="120" height="40" as="geometry" />
        </mxCell>
        <mxCell id="U7r8t6jxX_xidp9yO5vY-16" value="YES" style="text;html=1;align=center;verticalAlign=middle;resizable=0;points=[];autosize=1;strokeColor=none;fillColor=none;" vertex="1" parent="1">
          <mxGeometry x="280" y="248" width="50" height="30" as="geometry" />
        </mxCell>
        <mxCell id="U7r8t6jxX_xidp9yO5vY-17" value="NO" style="text;html=1;align=center;verticalAlign=middle;resizable=0;points=[];autosize=1;strokeColor=none;fillColor=none;" vertex="1" parent="1">
          <mxGeometry x="520" y="248" width="40" height="30" as="geometry" />
        </mxCell>
        <mxCell id="U7r8t6jxX_xidp9yO5vY-23" style="edgeStyle=orthogonalEdgeStyle;rounded=0;orthogonalLoop=1;jettySize=auto;html=1;exitX=0.5;exitY=1;exitDx=0;exitDy=0;entryX=0;entryY=0.5;entryDx=0;entryDy=0;" edge="1" parent="1" source="U7r8t6jxX_xidp9yO5vY-21" target="U7r8t6jxX_xidp9yO5vY-9">
          <mxGeometry relative="1" as="geometry" />
        </mxCell>
        <mxCell id="U7r8t6jxX_xidp9yO5vY-21" value="print(&quot;The maximum number is:&quot;, max_n)" style="shape=parallelogram;perimeter=parallelogramPerimeter;whiteSpace=wrap;html=1;fixedSize=1;" vertex="1" parent="1">
          <mxGeometry x="190" y="600" width="260" height="40" as="geometry" />
        </mxCell>
        <mxCell id="U7r8t6jxX_xidp9yO5vY-24" value="YES" style="text;html=1;align=center;verticalAlign=middle;resizable=0;points=[];autosize=1;strokeColor=none;fillColor=none;" vertex="1" parent="1">
          <mxGeometry x="435" y="348" width="50" height="30" as="geometry" />
        </mxCell>
        <mxCell id="U7r8t6jxX_xidp9yO5vY-25" value="NO" style="text;html=1;align=center;verticalAlign=middle;resizable=0;points=[];autosize=1;strokeColor=none;fillColor=none;" vertex="1" parent="1">
          <mxGeometry x="640" y="348" width="40" height="30" as="geometry" />
        </mxCell>
      </root>
    </mxGraphModel>
  </diagram>
</mxfile>
